<svg id="svg" version="1.1" xmlns="http://www.w3.org/2000/svg" xmlns:xlink="http://www.w3.org/1999/xlink" width="400" height="343.9320388349514" viewBox="0, 0, 400,343.9320388349514"><g id="svgg"><path id="path0" d="M139.320 4.257 C 139.320 4.329,139.545 4.829,139.820 5.368 C 140.406 6.516,159.433 55.958,159.565 56.675 C 159.615 56.942,174.154 94.897,191.875 141.019 C 209.596 187.142,224.344 225.550,224.647 226.370 C 224.950 227.191,225.341 228.119,225.515 228.433 C 225.689 228.748,225.807 229.089,225.778 229.193 C 225.748 229.296,225.966 229.842,226.261 230.406 C 226.556 230.970,226.775 231.514,226.748 231.614 C 226.721 231.714,226.816 231.796,226.958 231.796 C 227.103 231.796,227.152 232.001,227.069 232.264 C 226.983 232.534,227.056 232.815,227.244 232.931 C 227.641 233.177,228.410 235.116,228.268 235.513 C 228.211 235.671,228.378 236.074,228.639 236.408 C 229.111 237.011,229.115 236.527,229.181 161.613 C 229.218 120.142,229.183 86.251,229.103 86.300 C 228.889 86.433,228.395 84.668,228.567 84.388 C 228.655 84.247,228.590 84.226,228.410 84.338 C 228.182 84.478,228.148 84.387,228.277 83.981 C 228.403 83.584,228.369 83.484,228.155 83.617 C 227.941 83.749,227.908 83.649,228.034 83.252 C 228.151 82.883,228.121 82.759,227.941 82.871 C 227.775 82.974,227.729 82.894,227.820 82.658 C 227.900 82.451,227.838 82.282,227.682 82.282 C 227.526 82.282,227.466 82.172,227.549 82.039 C 227.631 81.905,227.571 81.796,227.416 81.796 C 227.260 81.796,227.195 81.632,227.272 81.432 C 227.349 81.232,227.294 81.068,227.151 81.068 C 227.007 81.068,226.958 80.890,227.041 80.673 C 227.125 80.456,227.090 80.155,226.965 80.003 C 226.839 79.852,226.408 78.747,226.006 77.546 C 224.799 73.942,224.436 72.943,224.290 72.816 C 224.213 72.749,224.134 72.530,224.115 72.330 C 224.082 72.000,223.525 70.423,220.945 63.350 C 220.483 62.081,219.847 60.306,219.532 59.405 L 218.961 57.767 224.041 57.767 L 229.122 57.767 229.185 30.947 L 229.248 4.126 184.284 4.126 C 159.554 4.126,139.320 4.185,139.320 4.257 " stroke="none" fill="#34a0b7" fill-rule="evenodd"></path><path id="path1" d="M2.913 31.189 L 2.913 56.796 37.985 56.796 L 73.058 56.796 73.058 198.301 L 73.058 339.806 76.032 339.804 C 77.667 339.803,79.742 339.733,80.643 339.648 L 82.282 339.493 82.282 172.696 L 82.282 5.899 79.695 5.741 C 78.273 5.654,60.415 5.583,40.011 5.583 L 2.913 5.583 2.913 31.189 " stroke="none" fill="#8e3269" fill-rule="evenodd"></path><path id="path2" d="M229.288 4.288 C 229.199 4.377,229.126 16.446,229.126 31.108 L 229.126 57.767 251.335 57.767 L 273.544 57.767 273.544 31.094 C 273.544 6.995,273.507 4.407,273.160 4.274 C 272.634 4.072,229.490 4.086,229.288 4.288 M228.163 83.981 C 228.159 84.047,228.374 84.677,228.641 85.379 C 229.193 86.832,229.434 237.112,228.883 236.772 C 228.544 236.562,228.576 236.734,229.100 237.918 C 229.352 238.489,229.781 239.557,230.054 240.291 C 230.744 242.149,262.484 324.825,265.650 333.010 C 268.266 339.775,268.896 341.110,268.669 339.408 C 268.657 339.323,268.750 339.186,268.876 339.105 C 269.051 338.990,269.888 336.858,270.029 336.165 C 270.043 336.098,270.234 335.630,270.455 335.124 C 270.676 334.619,270.888 334.018,270.926 333.789 C 270.964 333.561,271.066 333.319,271.153 333.252 C 271.240 333.186,271.349 332.913,271.396 332.646 C 271.442 332.379,271.560 332.101,271.656 332.028 C 271.753 331.956,271.882 331.628,271.942 331.300 C 272.002 330.972,272.072 330.649,272.098 330.583 C 272.124 330.516,272.132 330.379,272.116 330.279 C 272.100 330.179,272.193 330.097,272.322 330.097 C 272.452 330.097,272.495 329.933,272.418 329.733 C 272.341 329.533,272.406 329.369,272.561 329.369 C 272.717 329.369,272.777 329.260,272.694 329.126 C 272.612 328.993,272.632 328.747,272.739 328.580 C 273.539 327.332,273.536 327.537,273.540 254.170 C 273.543 189.428,273.505 181.800,273.175 182.130 C 272.973 182.332,272.822 182.586,272.840 182.693 C 272.858 182.801,272.852 182.943,272.826 183.010 C 272.801 183.076,272.730 183.399,272.670 183.727 C 272.610 184.055,272.430 184.404,272.270 184.503 C 272.111 184.602,272.054 184.756,272.144 184.846 C 272.233 184.936,272.142 185.174,271.941 185.376 C 271.739 185.577,271.631 185.892,271.702 186.075 C 271.772 186.258,271.705 186.408,271.554 186.408 C 271.402 186.408,271.346 186.476,271.430 186.559 C 271.513 186.642,271.385 187.107,271.146 187.591 C 270.906 188.075,270.242 189.809,269.670 191.444 C 268.779 193.991,268.204 195.065,268.204 194.181 C 268.204 193.930,266.329 188.717,251.702 148.301 C 246.605 134.217,239.866 115.595,236.727 106.917 C 228.900 85.280,228.198 83.400,228.163 83.981 M227.587 234.041 C 227.806 234.609,228.092 235.182,228.222 235.316 C 228.378 235.475,228.412 235.433,228.323 235.194 C 228.248 234.994,228.053 234.421,227.890 233.920 C 227.727 233.419,227.502 233.010,227.391 233.010 C 227.279 233.010,227.368 233.474,227.587 234.041 " stroke="none" fill="#3374a0" fill-rule="evenodd"></path><path id="path3" d="M341.797 4.307 L 344.394 4.385 344.401 72.927 C 344.407 134.064,344.367 141.566,344.034 142.363 C 343.829 142.854,343.719 143.314,343.790 143.385 C 343.861 143.456,344.034 143.198,344.174 142.813 C 344.315 142.427,344.550 141.784,344.695 141.383 C 344.841 140.983,345.097 140.328,345.265 139.927 C 345.432 139.527,345.761 138.653,345.994 137.985 C 346.227 137.318,346.559 136.444,346.730 136.044 C 347.423 134.427,397.087 4.532,397.087 4.337 C 397.087 4.219,384.388 4.149,368.143 4.178 C 352.224 4.206,340.368 4.264,341.797 4.307 M80.522 5.763 L 82.282 5.847 82.282 172.692 L 82.282 339.537 81.129 339.627 C 80.495 339.677,90.925 339.738,104.308 339.762 L 128.641 339.806 128.641 198.301 L 128.641 56.796 144.053 56.796 C 152.530 56.796,159.466 56.733,159.466 56.655 C 159.466 56.454,140.291 6.521,140.017 6.009 C 139.801 5.605,138.164 5.585,109.275 5.631 C 92.493 5.657,79.554 5.717,80.522 5.763 M342.310 146.836 C 342.019 147.642,341.832 148.301,341.894 148.301 C 342.098 148.301,342.982 146.040,342.910 145.701 C 342.871 145.520,342.601 146.030,342.310 146.836 " stroke="none" fill="#622c6c" fill-rule="evenodd"></path><path id="path4" d="M273.240 4.287 C 273.480 4.384,273.544 9.972,273.544 31.088 L 273.544 57.767 295.538 57.767 C 316.367 57.767,317.526 57.789,317.417 58.192 C 317.353 58.425,307.442 86.083,295.393 119.652 C 283.344 153.222,273.465 180.825,273.441 180.992 C 273.416 181.160,273.320 181.373,273.227 181.465 C 273.134 181.558,273.060 181.807,273.062 182.019 C 273.065 182.355,273.095 182.358,273.301 182.039 C 273.645 181.506,273.629 326.571,273.285 327.214 C 273.143 327.479,273.066 327.813,273.113 327.956 C 273.185 328.170,280.547 309.071,299.093 260.558 C 300.420 257.087,302.488 251.681,303.688 248.544 C 304.888 245.407,306.559 241.038,307.400 238.835 C 308.242 236.632,309.935 232.209,311.163 229.005 C 312.390 225.801,314.084 221.377,314.927 219.175 C 315.770 216.972,317.464 212.549,318.692 209.345 C 319.919 206.141,321.612 201.717,322.454 199.515 C 323.296 197.312,324.988 192.888,326.215 189.684 C 333.443 170.810,336.306 163.294,338.141 158.374 C 339.086 155.837,340.003 153.434,340.178 153.034 C 340.353 152.633,340.737 151.596,341.033 150.728 C 341.328 149.860,341.668 149.025,341.788 148.873 C 341.909 148.720,341.976 148.501,341.938 148.387 C 341.830 148.060,342.791 145.404,342.976 145.519 C 343.068 145.576,343.143 145.328,343.143 144.969 C 343.143 144.610,343.267 144.275,343.418 144.225 C 343.569 144.174,343.631 144.033,343.555 143.911 C 343.480 143.789,343.540 143.689,343.689 143.689 C 343.839 143.689,343.896 143.585,343.817 143.457 C 343.738 143.330,343.839 142.830,344.041 142.347 C 344.365 141.571,344.407 133.541,344.401 72.957 L 344.394 4.444 340.583 4.286 C 336.168 4.103,272.786 4.104,273.240 4.287 M272.260 183.981 C 272.190 184.248,272.219 184.466,272.325 184.466 C 272.430 184.466,272.573 184.248,272.643 183.981 C 272.713 183.714,272.684 183.495,272.578 183.495 C 272.473 183.495,272.330 183.714,272.260 183.981 " stroke="none" fill="#345994" fill-rule="evenodd"></path></g></svg>