<svg id="svg" version="1.1" xmlns="http://www.w3.org/2000/svg" xmlns:xlink="http://www.w3.org/1999/xlink" width="400" height="322.1570926143024" viewBox="0, 0, 400,322.1570926143024"><g id="svgg"><path id="path0" d="M0.645 30.298 L 0.645 54.795 33.521 54.795 L 66.398 54.795 66.398 187.429 L 66.398 320.064 92.828 320.064 L 119.259 320.064 119.259 187.429 L 119.259 54.795 148.429 54.795 C 172.854 54.795,177.599 54.723,177.599 54.355 C 177.599 53.976,176.608 51.238,174.375 45.447 C 174.067 44.649,173.271 42.546,172.604 40.774 C 171.938 39.001,171.122 36.942,170.789 36.198 C 170.457 35.454,170.185 34.691,170.185 34.502 C 170.185 34.312,170.043 33.905,169.869 33.598 C 169.481 32.914,167.284 27.255,167.284 26.942 C 167.284 26.818,167.013 26.109,166.680 25.365 C 166.348 24.621,165.531 22.562,164.865 20.790 C 164.199 19.017,163.402 16.914,163.093 16.116 C 160.095 8.372,159.547 6.676,159.902 6.248 C 160.217 5.868,148.382 5.802,80.458 5.802 L 0.645 5.802 0.645 30.298 " stroke="none" fill="#040404" fill-rule="evenodd"></path><path id="path1" d="" stroke="none" fill="#048c94" fill-rule="evenodd"></path><path id="path2" d="M184.896 6.285 C 184.735 6.703,183.037 6.769,172.327 6.769 L 159.945 6.769 161.563 11.039 C 162.453 13.388,163.433 15.963,163.740 16.761 C 164.047 17.558,164.844 19.662,165.510 21.434 C 166.176 23.207,166.993 25.266,167.325 26.010 C 167.657 26.753,167.929 27.579,167.929 27.844 C 167.929 28.109,168.063 28.409,168.227 28.510 C 168.390 28.611,168.620 29.129,168.736 29.660 C 168.853 30.192,169.135 31.024,169.362 31.510 C 169.589 31.996,170.318 33.844,170.983 35.616 C 171.647 37.389,172.314 39.130,172.465 39.484 C 172.617 39.839,173.262 41.507,173.899 43.191 C 174.537 44.875,175.258 46.761,175.501 47.381 C 175.745 48.002,176.343 49.525,176.831 50.766 C 177.319 52.006,177.754 53.733,177.798 54.601 C 177.843 55.470,178.014 56.268,178.179 56.374 C 178.344 56.480,178.580 56.930,178.704 57.373 C 178.827 57.816,179.061 58.469,179.222 58.824 C 179.540 59.523,180.327 61.699,180.912 63.497 C 181.114 64.118,181.376 64.698,181.494 64.786 C 181.612 64.875,181.810 65.419,181.935 65.995 C 182.060 66.571,182.277 67.043,182.418 67.043 C 182.558 67.043,182.766 67.623,182.880 68.332 C 182.993 69.041,183.199 69.621,183.338 69.621 C 183.476 69.621,183.746 70.165,183.937 70.830 C 184.562 73.000,186.062 77.024,186.639 78.078 C 186.808 78.386,186.951 78.821,186.957 79.045 C 186.963 79.269,187.248 80.032,187.591 80.741 C 187.933 81.450,188.218 82.284,188.224 82.595 C 188.230 82.905,188.364 83.159,188.522 83.159 C 188.679 83.159,188.901 83.656,189.015 84.263 C 189.129 84.871,189.359 85.415,189.525 85.472 C 189.692 85.529,189.873 85.866,189.927 86.221 C 189.982 86.575,190.163 87.083,190.330 87.349 C 190.496 87.615,190.591 88.159,190.539 88.558 C 190.488 88.956,190.601 89.283,190.791 89.283 C 190.981 89.283,191.136 89.581,191.136 89.947 C 191.136 90.312,191.268 90.529,191.428 90.430 C 191.589 90.330,191.645 90.539,191.552 90.894 C 191.458 91.255,191.542 91.539,191.743 91.539 C 191.941 91.539,192.103 91.757,192.103 92.023 C 192.103 92.288,192.248 92.506,192.425 92.506 C 192.603 92.506,192.748 92.660,192.748 92.847 C 192.748 93.035,192.566 93.080,192.345 92.947 C 192.024 92.754,192.023 92.805,192.342 93.199 C 192.562 93.471,192.647 93.789,192.530 93.906 C 192.413 94.022,192.487 94.118,192.694 94.118 C 192.901 94.118,193.075 94.371,193.081 94.682 C 193.087 94.992,193.372 95.826,193.715 96.535 C 194.057 97.244,194.342 98.151,194.348 98.550 C 194.354 98.948,194.486 99.275,194.641 99.275 C 194.797 99.275,195.013 99.721,195.122 100.267 C 195.352 101.415,196.293 103.538,196.696 103.817 C 196.848 103.922,196.935 104.139,196.889 104.300 C 196.783 104.672,197.570 107.050,197.963 107.547 C 198.126 107.753,198.334 108.330,198.424 108.829 C 198.515 109.328,198.704 109.812,198.845 109.904 C 198.986 109.997,199.201 110.616,199.323 111.281 C 199.446 111.946,199.671 112.490,199.825 112.490 C 199.979 112.490,200.202 113.069,200.322 113.778 C 200.442 114.486,200.674 115.148,200.839 115.250 C 201.004 115.352,201.055 115.570,200.953 115.735 C 200.851 115.900,200.909 116.035,201.081 116.035 C 201.253 116.035,201.492 116.616,201.612 117.325 C 201.731 118.034,201.962 118.614,202.123 118.614 C 202.285 118.614,202.422 118.868,202.428 119.178 C 202.434 119.488,202.720 120.322,203.062 121.031 C 203.405 121.741,203.690 122.485,203.696 122.687 C 203.702 122.888,203.923 123.468,204.188 123.976 C 204.453 124.484,204.671 125.153,204.672 125.463 C 204.673 125.774,204.819 126.027,204.996 126.027 C 205.173 126.027,205.319 126.281,205.320 126.591 C 205.321 126.902,205.538 127.569,205.802 128.075 C 206.066 128.581,206.209 129.113,206.120 129.257 C 206.032 129.400,206.108 129.568,206.290 129.628 C 206.473 129.689,206.700 130.168,206.795 130.693 C 206.890 131.218,207.088 131.798,207.234 131.980 C 207.380 132.163,207.601 132.785,207.725 133.363 C 207.848 133.941,208.083 134.331,208.245 134.230 C 208.408 134.130,208.541 134.360,208.541 134.743 C 208.541 135.125,208.744 135.895,208.990 136.454 C 209.445 137.482,209.693 138.173,209.817 138.759 C 209.855 138.936,209.998 139.226,210.136 139.404 C 210.274 139.581,210.483 140.131,210.602 140.626 C 210.720 141.120,210.956 141.439,211.126 141.334 C 211.300 141.226,211.348 141.369,211.236 141.661 C 211.064 142.109,211.916 144.586,212.400 145.044 C 212.494 145.133,212.621 145.568,212.682 146.011 C 212.743 146.454,212.916 146.863,213.067 146.918 C 213.217 146.974,213.260 147.228,213.163 147.483 C 213.065 147.737,213.129 147.945,213.306 147.945 C 213.482 147.945,213.719 148.439,213.833 149.042 C 213.946 149.646,214.245 150.219,214.498 150.315 C 214.750 150.412,214.903 150.771,214.837 151.113 C 214.772 151.455,214.928 152.139,215.184 152.634 C 215.441 153.128,215.809 154.161,216.002 154.929 C 216.196 155.697,216.447 156.326,216.560 156.326 C 216.674 156.326,216.957 156.631,217.190 157.004 C 217.423 157.377,217.458 157.586,217.268 157.468 C 216.749 157.148,216.851 157.820,217.405 158.375 C 217.671 158.640,217.894 159.122,217.900 159.445 C 217.906 159.768,218.191 160.612,218.533 161.322 C 218.876 162.031,219.161 162.776,219.167 162.977 C 219.173 163.178,219.395 163.758,219.660 164.266 C 219.924 164.774,220.142 165.443,220.143 165.753 C 220.144 166.064,220.274 166.317,220.431 166.317 C 220.589 166.317,220.813 166.825,220.930 167.446 C 221.046 168.066,221.295 168.574,221.483 168.574 C 221.672 168.574,221.738 168.802,221.631 169.081 C 221.524 169.360,221.655 169.807,221.922 170.074 C 222.189 170.341,222.325 170.693,222.224 170.856 C 222.123 171.019,222.203 171.152,222.401 171.152 C 222.599 171.152,222.668 171.304,222.554 171.489 C 222.439 171.674,222.487 172.000,222.659 172.214 C 222.831 172.428,223.072 173.074,223.195 173.650 C 223.319 174.226,223.537 174.698,223.680 174.698 C 223.824 174.698,224.036 175.205,224.153 175.826 C 224.269 176.446,224.493 176.954,224.651 176.954 C 224.808 176.954,224.983 177.353,225.039 177.840 C 225.095 178.328,225.298 178.699,225.490 178.664 C 225.682 178.630,225.839 178.805,225.839 179.053 C 225.839 179.301,225.725 179.433,225.584 179.347 C 225.444 179.260,225.540 179.593,225.797 180.086 C 226.055 180.579,226.266 181.208,226.267 181.483 C 226.268 181.757,226.393 182.120,226.545 182.288 C 226.696 182.457,227.234 183.781,227.740 185.231 C 228.246 186.682,228.744 187.816,228.846 187.753 C 228.949 187.689,229.064 188.011,229.102 188.468 C 229.140 188.925,229.388 189.734,229.654 190.267 C 229.920 190.799,230.137 191.431,230.137 191.669 C 230.137 191.908,230.277 192.103,230.449 192.103 C 230.621 192.103,230.678 192.321,230.576 192.587 C 230.474 192.853,230.533 193.070,230.707 193.070 C 230.988 193.070,231.522 194.815,231.338 195.133 C 231.298 195.202,231.555 195.589,231.910 195.993 C 232.264 196.396,232.379 196.624,232.165 196.499 C 231.904 196.347,231.930 196.567,232.244 197.169 C 232.501 197.662,232.712 198.304,232.714 198.596 C 232.715 198.887,232.942 199.212,233.219 199.319 C 233.497 199.425,233.634 199.656,233.525 199.833 C 233.416 200.010,233.536 200.627,233.792 201.205 C 234.200 202.125,234.638 203.203,234.810 203.707 C 234.840 203.795,235.034 204.276,235.241 204.775 C 235.447 205.274,235.616 205.891,235.616 206.145 C 235.616 206.399,235.761 206.608,235.939 206.608 C 236.116 206.608,236.261 206.816,236.261 207.070 C 236.261 207.324,236.430 207.941,236.637 208.440 C 236.844 208.939,237.025 209.444,237.040 209.562 C 237.055 209.680,237.176 209.886,237.309 210.019 C 237.442 210.152,237.550 210.526,237.550 210.851 C 237.550 211.176,237.704 211.442,237.892 211.442 C 238.079 211.442,238.143 211.587,238.034 211.765 C 237.924 211.942,237.988 212.087,238.176 212.087 C 238.364 212.087,238.488 212.196,238.452 212.329 C 238.295 212.910,238.901 214.988,239.178 214.817 C 239.347 214.713,239.485 214.962,239.486 215.372 C 239.487 216.127,240.719 219.423,241.291 220.202 C 241.463 220.437,241.648 221.054,241.703 221.573 C 241.757 222.093,242.040 222.880,242.330 223.323 C 242.620 223.767,242.874 224.284,242.895 224.474 C 242.915 224.664,242.954 225.009,242.981 225.241 C 243.008 225.473,243.197 225.559,243.402 225.433 C 243.618 225.299,243.687 225.343,243.567 225.538 C 243.343 225.900,243.942 227.934,244.355 228.211 C 244.493 228.305,244.694 228.879,244.802 229.487 C 244.909 230.096,245.118 230.745,245.265 230.930 C 245.413 231.114,245.635 231.737,245.758 232.313 C 245.881 232.889,246.115 233.360,246.279 233.360 C 246.442 233.360,246.575 233.620,246.575 233.937 C 246.575 234.254,246.849 235.050,247.183 235.706 C 247.518 236.362,247.669 236.823,247.519 236.730 C 247.370 236.638,247.458 236.966,247.715 237.459 C 247.972 237.953,248.184 238.610,248.185 238.920 C 248.186 239.230,248.332 239.484,248.509 239.484 C 248.687 239.484,248.832 239.738,248.834 240.048 C 248.835 240.359,249.052 241.028,249.317 241.536 C 249.582 242.043,249.799 242.595,249.799 242.762 C 249.799 242.929,250.117 243.746,250.507 244.579 C 250.896 245.411,251.178 246.224,251.134 246.385 C 251.090 246.546,251.212 246.775,251.405 246.894 C 251.598 247.013,251.829 247.534,251.919 248.052 C 252.009 248.569,252.301 249.159,252.569 249.363 C 252.865 249.588,252.920 249.779,252.708 249.849 C 252.494 249.921,252.678 250.623,253.188 251.681 C 253.643 252.624,254.101 253.827,254.207 254.355 C 254.331 254.974,254.550 255.255,254.827 255.149 C 255.148 255.026,255.208 255.224,255.066 255.937 C 254.947 256.528,255.009 256.890,255.228 256.890 C 255.421 256.890,255.497 257.107,255.395 257.373 C 255.293 257.639,255.370 257.857,255.566 257.857 C 255.762 257.857,255.923 258.082,255.923 258.358 C 255.923 258.633,256.230 259.533,256.606 260.358 C 256.981 261.182,257.321 262.008,257.362 262.194 C 257.402 262.379,257.615 262.965,257.836 263.497 C 258.056 264.029,258.281 264.682,258.335 264.948 C 258.433 265.427,259.286 267.494,259.830 268.569 C 259.985 268.877,260.114 269.312,260.115 269.536 C 260.116 269.760,260.320 270.333,260.568 270.808 C 260.816 271.284,261.117 272.118,261.236 272.662 C 261.356 273.205,261.587 273.650,261.750 273.650 C 261.913 273.650,262.047 273.858,262.047 274.113 C 262.047 274.367,262.216 274.984,262.423 275.483 C 262.892 276.616,262.829 276.429,263.351 278.243 C 263.594 279.085,263.891 279.774,264.012 279.774 C 264.132 279.774,264.326 280.282,264.443 280.902 C 264.559 281.523,264.793 282.031,264.962 282.031 C 265.131 282.031,265.270 282.359,265.270 282.761 C 265.270 283.162,265.560 284.032,265.915 284.693 C 266.269 285.355,266.564 286.150,266.569 286.461 C 266.575 286.772,266.793 287.308,267.053 287.652 C 267.313 287.996,267.526 288.493,267.526 288.755 C 267.526 289.017,267.766 289.497,268.060 289.822 C 268.383 290.179,268.445 290.411,268.218 290.411 C 267.952 290.411,267.937 290.575,268.168 290.975 C 268.347 291.285,268.638 291.947,268.815 292.445 C 268.992 292.943,269.246 293.284,269.379 293.202 C 269.512 293.120,269.632 293.537,269.645 294.128 C 269.657 294.719,269.864 295.439,270.103 295.727 C 270.342 296.015,270.578 296.628,270.627 297.089 C 270.676 297.550,270.874 298.024,271.067 298.144 C 271.259 298.263,271.493 298.783,271.586 299.301 C 271.679 299.818,271.891 300.380,272.058 300.548 C 272.225 300.716,272.361 301.115,272.361 301.434 C 272.361 301.753,272.515 302.015,272.702 302.015 C 272.890 302.015,272.953 302.161,272.842 302.341 C 272.731 302.520,272.856 303.099,273.119 303.627 C 273.382 304.155,273.694 305.023,273.811 305.557 C 273.928 306.090,274.141 306.527,274.285 306.527 C 274.541 306.527,275.107 308.692,274.986 309.210 C 274.952 309.356,275.056 309.394,275.219 309.293 C 275.381 309.193,275.608 309.612,275.723 310.225 C 275.837 310.838,276.093 311.439,276.291 311.561 C 276.528 311.708,276.561 311.630,276.388 311.331 C 276.244 311.082,276.245 310.987,276.391 311.119 C 276.537 311.252,276.692 311.887,276.735 312.532 C 276.778 313.177,276.951 313.793,277.119 313.903 C 277.287 314.012,277.525 314.645,277.647 315.310 C 277.770 315.975,278.008 316.519,278.177 316.519 C 278.347 316.519,278.485 316.737,278.485 317.002 C 278.485 317.839,279.036 317.530,279.576 316.390 C 279.863 315.787,280.097 315.151,280.097 314.976 C 280.097 314.802,280.313 314.243,280.578 313.735 C 280.843 313.228,281.061 312.558,281.062 312.248 C 281.063 311.938,281.193 311.684,281.350 311.684 C 281.508 311.684,281.726 311.213,281.835 310.637 C 281.945 310.060,282.237 309.200,282.485 308.724 C 282.734 308.249,283.041 307.379,283.169 306.790 C 283.296 306.202,283.497 305.649,283.615 305.560 C 284.193 305.125,284.538 303.029,284.007 303.177 C 283.718 303.258,283.811 303.151,284.213 302.939 C 284.616 302.727,285.037 302.189,285.149 301.742 C 285.262 301.295,285.548 300.557,285.785 300.102 C 286.023 299.647,286.218 299.021,286.219 298.711 C 286.220 298.400,286.366 298.147,286.543 298.147 C 286.720 298.147,286.865 297.887,286.865 297.570 C 286.865 297.253,287.144 296.447,287.485 295.779 C 287.826 295.110,288.201 293.992,288.319 293.293 C 288.437 292.594,288.659 292.023,288.813 292.023 C 288.967 292.023,289.188 291.515,289.304 290.894 C 289.421 290.274,289.636 289.766,289.782 289.766 C 289.929 289.766,290.147 289.114,290.267 288.316 C 290.386 287.518,290.630 286.865,290.807 286.865 C 290.985 286.865,291.055 286.575,290.962 286.220 C 290.869 285.866,290.894 285.638,291.017 285.714 C 291.251 285.858,291.540 285.275,292.653 282.412 C 293.019 281.470,293.173 280.789,292.993 280.900 C 292.814 281.011,292.667 280.960,292.667 280.787 C 292.667 280.614,292.776 280.424,292.909 280.365 C 293.203 280.235,294.601 277.418,294.601 276.956 C 294.601 276.774,294.807 276.228,295.059 275.743 C 295.310 275.258,295.464 274.589,295.399 274.256 C 295.329 273.889,295.466 273.650,295.748 273.650 C 296.003 273.650,296.213 273.433,296.213 273.167 C 296.213 272.294,296.239 272.207,296.736 271.449 C 297.007 271.035,297.147 270.484,297.047 270.223 C 296.945 269.957,297.004 269.835,297.183 269.946 C 297.359 270.054,297.502 269.853,297.502 269.498 C 297.502 269.144,297.641 268.768,297.810 268.663 C 297.980 268.558,298.288 267.610,298.495 266.555 C 298.703 265.500,298.999 264.716,299.154 264.812 C 299.309 264.907,299.437 264.796,299.438 264.564 C 299.439 264.332,299.651 263.737,299.909 263.242 C 300.168 262.747,300.473 261.840,300.588 261.227 C 300.703 260.614,300.950 260.113,301.137 260.113 C 301.324 260.113,301.382 260.017,301.265 259.901 C 301.149 259.784,301.215 259.494,301.412 259.256 C 301.610 259.018,301.673 258.824,301.552 258.824 C 301.432 258.824,301.557 258.425,301.831 257.937 C 302.244 257.201,303.022 255.205,303.433 253.828 C 303.589 253.305,303.986 252.264,304.293 251.571 C 304.771 250.497,305.332 249.016,305.418 248.604 C 305.462 248.390,305.719 247.773,305.988 247.234 C 306.332 246.544,306.365 246.250,306.099 246.243 C 305.891 246.238,305.975 246.086,306.285 245.905 C 306.595 245.724,306.849 245.322,306.849 245.012 C 306.849 244.702,306.986 244.310,307.152 244.142 C 307.319 243.973,307.525 243.450,307.609 242.979 C 307.694 242.507,307.991 241.774,308.269 241.349 C 308.547 240.925,308.827 240.100,308.891 239.516 C 308.955 238.932,309.161 238.360,309.349 238.244 C 309.537 238.127,309.793 237.489,309.918 236.824 C 310.042 236.160,310.273 235.616,310.431 235.616 C 310.588 235.616,310.717 235.385,310.717 235.101 C 310.717 234.818,310.954 234.087,311.243 233.478 C 311.532 232.869,311.681 232.283,311.575 232.176 C 311.468 232.070,311.676 231.569,312.036 231.063 C 312.396 230.557,312.773 229.634,312.874 229.012 C 312.975 228.390,313.168 227.881,313.303 227.881 C 313.439 227.881,313.635 227.656,313.741 227.381 C 313.847 227.105,313.800 226.963,313.637 227.063 C 313.475 227.164,313.677 226.615,314.087 225.843 C 314.497 225.072,314.940 223.946,315.072 223.341 C 315.203 222.735,315.429 222.165,315.573 222.072 C 315.717 221.980,315.913 221.473,316.009 220.946 C 316.104 220.420,316.331 219.939,316.512 219.879 C 316.693 219.818,316.841 219.573,316.841 219.333 C 316.841 219.094,317.015 218.489,317.227 217.990 C 317.438 217.491,317.627 216.938,317.646 216.761 C 317.665 216.583,318.004 215.722,318.398 214.847 C 318.792 213.972,319.143 212.911,319.178 212.490 C 319.213 212.069,319.427 211.570,319.653 211.383 C 319.879 211.195,320.064 210.768,320.064 210.435 C 320.064 210.101,320.355 209.287,320.709 208.626 C 321.064 207.964,321.354 207.256,321.354 207.052 C 321.354 206.848,321.566 206.271,321.826 205.770 C 322.105 205.233,322.174 204.782,321.995 204.671 C 321.827 204.568,321.977 204.277,322.328 204.024 C 322.678 203.771,322.965 203.374,322.965 203.142 C 322.965 202.910,323.335 201.842,323.787 200.769 C 324.239 199.695,324.565 198.503,324.512 198.119 C 324.455 197.708,324.576 197.453,324.805 197.497 C 325.020 197.539,325.288 197.070,325.405 196.450 C 325.521 195.832,325.714 195.326,325.835 195.326 C 326.015 195.326,326.302 194.521,326.981 192.103 C 327.006 192.015,327.346 191.261,327.736 190.429 C 328.126 189.596,328.445 188.609,328.445 188.234 C 328.445 187.851,328.589 187.642,328.775 187.757 C 328.957 187.869,329.072 187.841,329.031 187.695 C 328.942 187.376,329.612 185.246,330.245 183.835 C 330.496 183.277,330.701 182.588,330.701 182.304 C 330.701 182.021,330.846 181.789,331.023 181.789 C 331.201 181.789,331.314 181.680,331.276 181.547 C 331.237 181.414,331.402 180.798,331.642 180.177 C 331.882 179.557,332.114 178.896,332.158 178.708 C 332.202 178.520,332.532 177.723,332.893 176.937 C 333.371 175.894,333.446 175.444,333.172 175.269 C 332.894 175.092,332.901 175.029,333.199 175.025 C 333.421 175.022,333.602 174.721,333.602 174.356 C 333.602 173.991,333.743 173.780,333.915 173.886 C 334.087 173.993,334.313 173.675,334.418 173.180 C 334.522 172.685,334.757 172.008,334.940 171.674 C 335.122 171.341,335.339 170.688,335.422 170.224 C 335.505 169.760,335.788 169.049,336.051 168.645 C 336.314 168.241,336.443 167.770,336.336 167.598 C 336.230 167.425,336.265 167.284,336.415 167.284 C 336.565 167.284,336.712 166.960,336.742 166.564 C 336.772 166.168,336.943 165.795,337.123 165.735 C 337.302 165.675,337.543 165.129,337.657 164.521 C 337.771 163.914,337.993 163.417,338.150 163.417 C 338.308 163.417,338.437 163.185,338.437 162.901 C 338.437 162.618,338.637 161.929,338.882 161.370 C 340.077 158.643,340.693 156.957,340.693 156.418 C 340.693 156.092,340.919 155.502,341.195 155.107 C 341.471 154.713,341.608 154.246,341.498 154.069 C 341.389 153.892,341.477 153.747,341.695 153.747 C 341.912 153.747,342.001 153.659,341.893 153.550 C 341.785 153.442,341.976 152.833,342.317 152.196 C 342.680 151.518,342.809 150.959,342.628 150.847 C 342.458 150.742,342.606 150.449,342.956 150.196 C 343.307 149.944,343.595 149.515,343.596 149.244 C 343.597 148.973,343.817 148.331,344.085 147.817 C 344.353 147.303,344.511 146.821,344.436 146.746 C 344.362 146.672,344.497 146.232,344.736 145.770 C 344.976 145.308,345.085 144.788,344.978 144.615 C 344.871 144.442,344.938 144.395,345.126 144.512 C 345.334 144.640,345.630 144.092,345.881 143.111 C 346.108 142.224,346.412 141.499,346.556 141.499 C 346.699 141.499,346.817 141.201,346.817 140.836 C 346.817 140.227,347.696 137.927,348.440 136.588 C 348.611 136.280,348.752 135.845,348.753 135.621 C 348.754 135.397,348.971 134.800,349.235 134.294 C 349.499 133.788,349.634 133.244,349.536 133.085 C 349.438 132.926,349.511 132.796,349.699 132.796 C 349.887 132.796,350.040 132.506,350.040 132.151 C 350.040 131.797,350.210 131.507,350.416 131.507 C 350.623 131.507,350.701 131.415,350.589 131.303 C 350.477 131.191,350.520 130.849,350.684 130.542 C 350.848 130.235,351.068 129.493,351.173 128.892 C 351.278 128.292,351.496 127.753,351.659 127.696 C 351.821 127.639,352.047 127.095,352.161 126.487 C 352.275 125.880,352.497 125.383,352.655 125.383 C 352.812 125.383,352.941 125.031,352.941 124.600 C 352.941 124.169,353.164 123.594,353.436 123.322 C 353.708 123.050,353.914 122.786,353.893 122.735 C 353.802 122.512,354.368 120.679,354.762 119.925 C 354.999 119.470,355.194 118.844,355.195 118.533 C 355.197 118.223,355.326 117.969,355.484 117.969 C 355.717 117.969,356.070 116.776,356.221 115.474 C 356.237 115.340,356.520 114.724,356.852 114.106 C 357.183 113.488,357.454 112.727,357.454 112.414 C 357.454 112.101,357.592 111.845,357.761 111.845 C 357.931 111.845,358.165 111.336,358.281 110.714 C 358.398 110.091,358.625 109.501,358.785 109.402 C 358.945 109.303,358.999 109.097,358.904 108.944 C 358.810 108.792,358.880 108.576,359.060 108.464 C 359.240 108.353,359.388 107.908,359.388 107.475 C 359.388 107.042,359.533 106.688,359.710 106.688 C 359.887 106.688,360.037 106.507,360.043 106.285 C 360.049 106.064,360.334 105.302,360.677 104.593 C 361.019 103.884,361.305 103.086,361.313 102.820 C 361.320 102.554,361.542 101.921,361.807 101.414 C 362.072 100.906,362.293 100.326,362.299 100.124 C 362.305 99.923,362.591 99.178,362.933 98.469 C 363.276 97.760,363.561 96.934,363.567 96.635 C 363.573 96.335,363.712 96.007,363.875 95.906 C 364.039 95.805,364.275 95.257,364.400 94.689 C 364.525 94.120,364.746 93.433,364.892 93.161 C 365.636 91.779,366.363 89.751,366.650 88.262 C 366.730 87.850,366.941 87.463,367.120 87.404 C 367.299 87.344,367.447 87.053,367.448 86.758 C 367.449 86.463,367.637 85.858,367.866 85.415 C 368.725 83.751,369.757 80.608,369.553 80.278 C 369.437 80.090,369.538 79.936,369.778 79.936 C 370.210 79.936,370.978 78.009,371.745 75.003 C 371.962 74.152,372.234 73.550,372.350 73.666 C 372.466 73.782,372.659 73.355,372.779 72.716 C 372.899 72.078,373.132 71.555,373.297 71.555 C 373.463 71.555,373.569 71.374,373.533 71.152 C 373.470 70.764,373.532 70.538,374.084 69.138 C 374.224 68.783,374.349 68.338,374.362 68.148 C 374.376 67.959,374.644 67.411,374.958 66.931 C 375.273 66.450,375.443 65.917,375.337 65.744 C 375.230 65.572,375.297 65.431,375.485 65.431 C 375.672 65.431,375.826 65.068,375.826 64.625 C 375.826 64.182,375.959 63.820,376.123 63.820 C 376.286 63.820,376.520 63.348,376.643 62.772 C 376.765 62.196,377.140 61.116,377.474 60.372 C 377.809 59.629,378.082 58.884,378.082 58.717 C 378.082 58.550,378.299 57.998,378.564 57.491 C 378.829 56.983,379.046 56.313,379.047 56.003 C 379.048 55.693,379.183 55.439,379.346 55.439 C 379.509 55.439,379.743 54.968,379.867 54.392 C 379.990 53.815,380.231 53.169,380.403 52.955 C 380.575 52.741,380.623 52.415,380.508 52.230 C 380.394 52.045,380.419 51.894,380.563 51.894 C 380.832 51.894,381.373 50.534,382.073 48.097 C 382.290 47.339,382.593 46.831,382.744 46.969 C 382.896 47.107,382.934 46.980,382.829 46.687 C 382.725 46.395,382.738 46.056,382.859 45.935 C 382.979 45.815,383.091 45.619,383.107 45.501 C 383.123 45.383,383.377 44.747,383.671 44.088 C 383.966 43.429,384.206 42.667,384.206 42.396 C 384.206 42.124,384.360 41.902,384.548 41.902 C 384.735 41.902,384.806 41.767,384.704 41.602 C 384.602 41.437,384.666 41.210,384.846 41.099 C 385.026 40.988,385.173 40.543,385.173 40.110 C 385.173 39.677,385.335 39.323,385.533 39.323 C 385.734 39.323,385.819 39.039,385.724 38.678 C 385.632 38.323,385.687 38.114,385.848 38.214 C 386.009 38.313,386.140 38.096,386.140 37.731 C 386.140 37.366,386.302 37.067,386.499 37.067 C 386.713 37.067,386.802 36.683,386.719 36.117 C 386.642 35.594,386.700 35.241,386.847 35.333 C 386.994 35.424,387.204 35.053,387.312 34.510 C 387.421 33.966,387.613 33.521,387.738 33.521 C 387.864 33.521,387.984 33.340,388.004 33.118 C 388.114 31.935,388.267 31.403,388.558 31.196 C 388.735 31.070,388.892 30.852,388.906 30.713 C 388.996 29.848,389.482 28.687,389.755 28.687 C 389.932 28.687,389.995 28.474,389.895 28.213 C 389.796 27.953,389.853 27.654,390.022 27.550 C 390.192 27.445,390.330 27.005,390.330 26.572 C 390.330 26.140,390.464 25.786,390.627 25.786 C 390.790 25.786,391.020 25.349,391.137 24.815 C 391.254 24.282,391.565 23.413,391.829 22.886 C 392.092 22.358,392.348 21.548,392.397 21.085 C 392.446 20.623,392.643 20.148,392.833 20.031 C 393.024 19.913,393.287 19.392,393.417 18.874 C 393.547 18.356,393.847 17.559,394.085 17.104 C 394.322 16.649,394.517 16.023,394.519 15.713 C 394.520 15.403,394.641 15.149,394.789 15.149 C 395.021 15.149,395.249 14.436,395.964 11.483 C 396.045 11.151,396.339 10.530,396.618 10.104 C 396.897 9.678,397.025 9.166,396.902 8.966 C 396.774 8.760,396.821 8.692,397.010 8.809 C 397.333 9.009,397.744 7.665,397.744 6.406 C 397.744 5.563,185.219 5.442,184.896 6.285 M324.049 56.245 C 323.947 56.511,323.734 56.728,323.576 56.728 C 323.417 56.728,323.287 56.982,323.286 57.293 C 323.285 57.603,323.067 58.272,322.802 58.780 C 322.537 59.288,322.321 59.846,322.321 60.020 C 322.321 60.195,322.118 60.795,321.870 61.353 C 321.622 61.912,321.027 63.529,320.546 64.948 C 320.066 66.366,319.594 67.744,319.497 68.010 C 319.400 68.276,319.299 68.638,319.271 68.815 C 319.216 69.177,318.920 69.944,318.257 71.443 C 318.010 72.001,317.808 72.690,317.808 72.974 C 317.808 73.257,317.668 73.489,317.497 73.489 C 317.326 73.489,317.090 74.212,316.973 75.095 C 316.856 75.978,316.633 76.622,316.478 76.526 C 316.323 76.430,316.197 76.767,316.197 77.273 C 316.197 77.780,316.023 78.369,315.810 78.582 C 315.597 78.795,315.561 78.971,315.729 78.974 C 315.898 78.976,315.831 79.108,315.581 79.266 C 315.331 79.424,315.094 79.821,315.054 80.148 C 314.875 81.626,314.476 82.836,314.169 82.836 C 313.984 82.836,313.928 82.932,314.045 83.049 C 314.162 83.165,314.096 83.455,313.898 83.693 C 313.701 83.931,313.646 84.126,313.777 84.126 C 313.908 84.126,313.767 84.503,313.465 84.964 C 313.163 85.426,312.987 86.079,313.076 86.415 C 313.164 86.752,313.104 86.946,312.943 86.847 C 312.783 86.748,312.651 86.965,312.651 87.330 C 312.651 87.695,312.506 87.994,312.329 87.994 C 312.151 87.994,312.006 88.220,312.006 88.496 C 312.006 88.792,312.172 88.915,312.409 88.794 C 312.631 88.682,312.588 88.782,312.314 89.017 C 311.617 89.614,310.929 91.421,311.219 91.892 C 311.384 92.158,311.326 92.200,311.039 92.022 C 310.725 91.828,310.661 91.936,310.792 92.435 C 310.889 92.806,310.799 93.174,310.591 93.254 C 310.258 93.382,309.295 96.264,309.267 97.217 C 309.262 97.414,309.060 97.813,308.819 98.103 C 308.451 98.547,308.451 98.632,308.824 98.641 C 309.111 98.648,309.024 98.854,308.575 99.229 C 308.179 99.561,307.814 100.330,307.719 101.034 C 307.628 101.710,307.406 102.353,307.227 102.464 C 307.047 102.575,306.796 103.099,306.669 103.629 C 306.542 104.159,306.297 104.773,306.124 104.992 C 305.952 105.211,305.894 105.610,305.997 105.878 C 306.100 106.146,306.044 106.366,305.872 106.366 C 305.701 106.366,305.560 106.647,305.560 106.991 C 305.560 107.336,305.405 107.713,305.216 107.830 C 305.026 107.947,304.952 108.253,305.051 108.510 C 305.162 108.801,305.094 108.894,304.870 108.755 C 304.652 108.620,304.572 108.709,304.668 108.980 C 304.756 109.226,304.635 109.808,304.401 110.273 C 304.166 110.738,304.065 111.210,304.176 111.321 C 304.287 111.432,304.222 111.523,304.030 111.523 C 303.712 111.523,303.092 113.912,303.251 114.528 C 303.289 114.675,303.178 114.707,303.006 114.600 C 302.716 114.421,302.113 116.503,302.280 117.107 C 302.320 117.253,302.207 117.283,302.029 117.172 C 301.842 117.057,301.616 117.525,301.496 118.277 C 301.381 118.994,301.177 119.581,301.042 119.581 C 300.797 119.581,300.239 121.763,300.357 122.264 C 300.391 122.410,300.273 122.440,300.095 122.329 C 299.908 122.214,299.682 122.685,299.561 123.441 C 299.446 124.162,299.232 124.826,299.085 124.917 C 298.939 125.007,298.901 125.294,299.001 125.554 C 299.101 125.814,299.022 126.027,298.826 126.027 C 298.630 126.027,298.468 126.281,298.467 126.591 C 298.466 126.902,298.269 127.532,298.029 127.991 C 297.789 128.451,297.493 129.358,297.372 130.006 C 297.250 130.654,297.014 131.185,296.847 131.185 C 296.679 131.185,296.450 131.765,296.337 132.474 C 296.223 133.183,295.987 133.763,295.812 133.763 C 295.636 133.763,295.562 134.126,295.647 134.569 C 295.732 135.012,295.711 135.375,295.602 135.375 C 295.380 135.375,294.893 136.431,294.117 138.598 C 293.117 141.390,293.019 141.821,293.384 141.821 C 293.576 141.821,293.421 142.092,293.039 142.423 C 292.657 142.754,292.344 143.298,292.343 143.632 C 292.342 143.965,292.124 144.654,291.859 145.162 C 291.595 145.670,291.378 146.228,291.378 146.402 C 291.378 146.577,291.141 147.218,290.852 147.827 C 290.563 148.437,290.408 149.016,290.507 149.116 C 290.606 149.215,290.411 149.788,290.074 150.389 C 289.737 150.989,289.554 151.725,289.668 152.022 C 289.820 152.419,289.760 152.492,289.444 152.297 C 289.128 152.101,289.068 152.174,289.218 152.566 C 289.331 152.861,289.289 153.102,289.125 153.102 C 288.818 153.102,287.340 157.459,287.403 158.179 C 287.423 158.400,287.310 158.582,287.152 158.582 C 286.994 158.582,286.865 158.783,286.865 159.028 C 286.865 159.274,286.650 159.891,286.386 160.398 C 286.102 160.945,286.036 161.365,286.225 161.429 C 286.400 161.488,286.543 161.678,286.543 161.851 C 286.543 162.024,286.420 162.089,286.269 161.996 C 285.886 161.759,284.760 164.220,284.072 166.801 C 283.978 167.156,283.708 167.881,283.474 168.413 C 283.239 168.944,282.944 169.815,282.817 170.346 C 282.690 170.878,282.480 171.459,282.351 171.636 C 282.221 171.813,282.019 172.491,281.901 173.143 C 281.784 173.795,281.511 174.401,281.295 174.489 C 281.008 174.606,281.032 174.741,281.386 174.991 C 281.803 175.286,281.792 175.333,281.305 175.338 C 280.924 175.341,280.741 175.597,280.741 176.129 C 280.741 176.562,280.586 177.012,280.397 177.129 C 280.208 177.246,280.131 177.544,280.226 177.792 C 280.321 178.040,280.258 178.243,280.087 178.243 C 279.915 178.243,279.774 178.606,279.774 179.049 C 279.774 179.492,279.629 179.855,279.452 179.855 C 279.275 179.855,279.130 180.068,279.130 180.328 C 279.130 181.247,278.180 180.437,277.975 179.343 C 277.862 178.741,277.642 178.328,277.486 178.424 C 277.331 178.520,277.284 178.389,277.383 178.132 C 277.481 177.874,277.405 177.567,277.213 177.448 C 277.020 177.329,276.946 177.097,277.048 176.932 C 277.150 176.767,277.072 176.632,276.873 176.632 C 276.675 176.632,276.600 176.491,276.706 176.320 C 276.812 176.148,276.579 175.314,276.187 174.466 C 275.796 173.619,275.493 172.639,275.515 172.290 C 275.537 171.941,275.411 171.567,275.236 171.458 C 275.060 171.350,274.840 170.841,274.747 170.327 C 274.654 169.814,274.463 169.318,274.322 169.225 C 274.181 169.133,273.965 168.509,273.842 167.840 C 273.718 167.170,273.504 166.692,273.365 166.778 C 273.227 166.864,273.100 166.759,273.083 166.545 C 273.005 165.515,272.616 164.212,272.360 164.121 C 272.203 164.065,272.149 163.826,272.240 163.590 C 272.331 163.353,272.250 163.064,272.061 162.947 C 271.871 162.830,271.716 162.380,271.716 161.947 C 271.716 161.514,271.576 161.160,271.404 161.160 C 271.232 161.160,271.170 160.957,271.265 160.709 C 271.360 160.461,271.283 160.163,271.094 160.046 C 270.904 159.929,270.749 159.588,270.747 159.288 C 270.746 158.988,270.534 158.338,270.276 157.843 C 270.018 157.348,269.712 156.441,269.597 155.828 C 269.482 155.215,269.272 154.714,269.130 154.714 C 268.988 154.714,268.774 154.134,268.654 153.425 C 268.535 152.716,268.329 152.135,268.197 152.135 C 268.065 152.135,267.797 151.519,267.602 150.766 C 267.147 149.009,266.176 146.400,265.593 145.367 C 265.343 144.923,265.175 144.320,265.219 144.025 C 265.264 143.731,265.149 143.396,264.963 143.281 C 264.777 143.166,264.625 142.782,264.625 142.428 C 264.625 142.073,264.494 141.864,264.333 141.964 C 264.172 142.063,264.121 141.839,264.218 141.466 C 264.316 141.093,264.262 140.694,264.098 140.579 C 263.779 140.355,261.914 134.905,262.031 134.539 C 262.070 134.418,261.981 134.230,261.833 134.121 C 261.684 134.013,261.201 132.836,260.757 131.507 C 260.314 130.177,259.843 129.041,259.710 128.982 C 259.577 128.923,259.468 128.556,259.468 128.167 C 259.468 127.778,259.269 127.174,259.026 126.824 C 258.783 126.475,258.474 125.681,258.341 125.060 C 258.207 124.440,257.975 123.853,257.824 123.757 C 257.567 123.593,257.290 122.555,257.236 121.556 C 257.216 121.181,257.126 121.181,256.648 121.556 C 256.158 121.940,256.131 121.935,256.443 121.515 C 256.860 120.953,256.906 119.903,256.514 119.903 C 256.366 119.903,256.245 119.661,256.245 119.365 C 256.245 119.068,256.010 118.566,255.723 118.249 C 255.436 117.932,255.172 117.075,255.137 116.345 C 255.101 115.615,254.914 114.920,254.721 114.800 C 254.528 114.681,254.268 114.038,254.143 113.372 C 254.018 112.706,253.787 112.081,253.630 111.984 C 253.473 111.887,253.339 111.562,253.333 111.262 C 253.327 110.962,253.042 110.137,252.699 109.428 C 252.357 108.719,252.072 107.885,252.066 107.575 C 252.060 107.264,251.929 107.010,251.774 107.010 C 251.620 107.010,251.494 106.757,251.493 106.446 C 251.492 105.630,251.055 104.432,250.758 104.432 C 250.618 104.432,250.579 104.142,250.672 103.787 C 250.766 103.427,250.682 103.143,250.481 103.143 C 250.283 103.143,250.121 102.814,250.121 102.413 C 250.121 102.011,249.811 101.105,249.432 100.398 C 249.054 99.692,248.764 99.077,248.788 99.033 C 249.010 98.624,248.730 97.985,248.329 97.985 C 248.053 97.985,247.918 97.837,248.031 97.655 C 248.326 97.177,247.868 95.367,247.508 95.589 C 247.341 95.693,247.225 95.658,247.250 95.511 C 247.379 94.772,247.187 93.778,246.944 93.928 C 246.793 94.021,246.741 93.718,246.830 93.254 C 246.943 92.663,246.878 92.480,246.614 92.643 C 246.407 92.771,246.270 92.757,246.311 92.611 C 246.437 92.154,245.558 88.968,245.254 88.779 C 245.094 88.681,244.964 88.377,244.964 88.104 C 244.964 87.831,244.762 87.150,244.515 86.592 C 243.952 85.319,243.671 84.473,243.764 84.333 C 243.803 84.273,243.643 83.993,243.407 83.709 C 243.172 83.425,242.904 82.714,242.811 82.128 C 242.719 81.543,242.534 80.991,242.400 80.902 C 242.266 80.814,241.976 79.979,241.755 79.048 C 241.534 78.117,241.223 77.274,241.064 77.176 C 240.904 77.077,240.773 76.751,240.772 76.452 C 240.770 76.152,240.553 75.491,240.288 74.983 C 240.023 74.476,239.807 73.851,239.807 73.594 C 239.807 73.325,239.650 73.225,239.434 73.359 C 239.206 73.500,239.150 73.447,239.289 73.223 C 239.526 72.839,238.548 69.601,238.094 69.267 C 237.950 69.161,237.756 68.593,237.663 68.005 C 237.571 67.416,237.253 66.567,236.958 66.117 C 236.664 65.667,236.459 65.256,236.503 65.204 C 236.716 64.953,236.550 64.124,236.316 64.269 C 236.169 64.360,236.077 64.115,236.111 63.724 C 236.145 63.333,236.023 62.824,235.839 62.592 C 235.656 62.360,235.466 61.793,235.416 61.332 C 235.367 60.871,235.193 60.408,235.029 60.303 C 234.865 60.198,234.621 59.607,234.487 58.989 C 234.352 58.372,234.028 57.539,233.766 57.139 C 233.045 56.038,231.085 56.087,279.130 56.001 C 303.860 55.957,324.125 55.885,324.164 55.841 C 324.203 55.797,324.151 55.979,324.049 56.245 " stroke="none" fill="#04848d" fill-rule="evenodd"></path><path id="path3" d="M184.690 6.070 C 184.690 6.349,181.457 6.466,172.200 6.523 L 159.710 6.600 172.099 6.688 C 183.741 6.771,185.651 6.656,184.910 5.915 C 184.789 5.793,184.690 5.864,184.690 6.070 M167.338 26.769 C 167.527 27.310,167.741 27.693,167.814 27.620 C 167.974 27.460,167.366 25.786,167.148 25.786 C 167.064 25.786,167.150 26.228,167.338 26.769 " stroke="none" fill="#045458" fill-rule="evenodd"></path><path id="path4" d="M159.865 6.293 C 159.640 6.563,159.550 6.878,159.664 6.991 C 159.778 7.105,159.871 7.029,159.871 6.822 C 159.871 6.542,163.041 6.446,172.280 6.446 C 180.338 6.446,184.690 6.333,184.690 6.124 C 184.690 5.534,160.358 5.699,159.865 6.293 M165.405 22.257 C 165.593 22.797,165.807 23.180,165.880 23.107 C 166.040 22.947,165.432 21.273,165.214 21.273 C 165.130 21.273,165.216 21.716,165.405 22.257 M169.394 32.635 C 169.515 33.034,169.746 33.502,169.908 33.675 C 170.070 33.848,170.040 33.522,169.840 32.950 C 169.432 31.779,169.055 31.513,169.394 32.635 M170.361 35.214 C 170.482 35.612,170.713 36.080,170.875 36.254 C 171.037 36.427,171.007 36.101,170.807 35.529 C 170.399 34.358,170.022 34.091,170.361 35.214 " stroke="none" fill="#044444" fill-rule="evenodd"></path></g></svg>